<svg width="25" height="19" viewBox="0 0 25 19" fill="none" xmlns="http://www.w3.org/2000/svg">
<path d="M2.21878 10.3987H2.94736C3.62799 10.3987 4.18152 10.9523 4.18152 11.6329V13.1964H8.17812V10.7109C6.72096 10.2405 5.79734 8.29212 5.79734 5.60281C5.79734 2.71127 6.86403 0.6738 8.51503 0.412023C8.53581 0.408825 8.5566 0.407227 8.57778 0.407227H24.5642C24.7564 0.407227 24.9211 0.54431 24.9567 0.733349H24.9571C24.9651 0.776113 25.1457 1.79165 24.4603 2.61735C24.0055 3.16528 23.2933 3.48421 22.3453 3.57453C22.488 4.20999 22.5659 4.89741 22.5659 5.60281C22.5659 8.51633 21.3369 10.7984 19.7683 10.7984H11.3754V15.9808C11.3754 16.649 10.8319 17.193 10.1632 17.193H9.38989C8.86713 17.193 8.42471 16.8584 8.25485 16.3936H4.18111V17.5574C4.18111 18.2381 3.62759 18.7916 2.94696 18.7916H2.21838C1.53776 18.7916 0.984234 18.2381 0.984234 17.5574V11.6329C0.984632 10.9523 1.53816 10.3987 2.21878 10.3987ZM8.61175 1.20655C7.65376 1.3808 6.69818 2.6785 6.60625 5.20315H14.8073L16.2888 3.72161C16.364 3.64647 16.4655 3.60451 16.5714 3.60451H17.3707H17.5102H19.1028H19.5305C19.5341 3.59891 19.5385 3.59332 19.5421 3.58772C19.5828 3.52218 19.6284 3.45624 19.6779 3.38989C19.7047 3.35392 19.7347 3.31795 19.7639 3.28198C19.7771 3.2656 19.7894 3.24921 19.803 3.23282C19.819 3.21404 19.8354 3.19526 19.8522 3.17647C19.8698 3.15649 19.8842 3.13691 19.9022 3.11692C19.9089 3.10933 19.9177 3.10413 19.9253 3.09694C19.9701 3.04858 20.0169 3.00022 20.066 2.95146C20.0976 2.92029 20.1296 2.88952 20.1623 2.85874C20.2419 2.78441 20.3258 2.70967 20.4153 2.63493C20.4873 2.57458 20.5624 2.51583 20.6383 2.45708C20.6731 2.43031 20.7075 2.40353 20.7434 2.37675C21.3481 1.92474 22.0483 1.52388 22.6802 1.20655H8.61175ZM19.369 5.06966C19.369 5.90495 19.6088 6.45688 19.7687 6.69748C19.9285 6.45648 20.1683 5.90495 20.1683 5.06966C20.1683 4.74754 20.1336 4.47457 20.0844 4.24916C20.0828 4.25156 20.0796 4.25236 20.0776 4.25436C20.044 4.29552 20.0033 4.32789 19.9569 4.35267C19.9469 4.35787 19.9373 4.36187 19.9265 4.36626C19.877 4.38784 19.8246 4.40303 19.7683 4.40303H19.4238C19.3874 4.61645 19.369 4.83946 19.369 5.06966ZM23.84 2.11378C24.0326 1.88437 24.1182 1.62699 24.1561 1.40518C23.5534 1.66416 22.7537 2.04703 22.0164 2.49066C22.0555 2.58897 22.0915 2.69089 22.1267 2.794C22.9276 2.74284 23.5027 2.51464 23.84 2.11378ZM21.767 5.60281C21.767 4.63483 21.6143 3.70642 21.3329 2.93668C21.3249 2.94227 21.317 2.94787 21.309 2.95346C21.0624 3.13131 20.8561 3.30476 20.6791 3.47422C20.8194 3.81833 20.968 4.35227 20.968 5.06966C20.968 6.41812 20.4077 7.60071 19.7691 7.60071C19.1304 7.60071 18.5701 6.41812 18.5701 5.06966C18.5701 4.84146 18.5893 4.62005 18.6196 4.40343H17.8523C17.7983 4.79829 17.7708 5.20035 17.7708 5.60241C17.7708 8.07831 18.8451 9.99867 19.7691 9.99867C20.7135 9.99907 21.767 8.19341 21.767 5.60281ZM18.3007 9.99907C18.2895 9.98589 18.2795 9.9691 18.2683 9.95551C18.192 9.86319 18.1181 9.76407 18.0469 9.65896C18.0349 9.64138 18.0226 9.62619 18.0106 9.60821C17.9286 9.48311 17.8511 9.34843 17.7768 9.20735C17.7568 9.16978 17.7388 9.12941 17.7196 9.09065C17.6661 8.98234 17.6149 8.87083 17.5661 8.75493C17.5454 8.70537 17.525 8.65542 17.505 8.60466C17.4574 8.48316 17.4135 8.35767 17.3715 8.22898C17.3579 8.18661 17.3427 8.14585 17.3299 8.10309C17.2776 7.93123 17.2304 7.75458 17.1885 7.57234C17.1801 7.53597 17.1741 7.4984 17.1661 7.46203C17.1345 7.31376 17.1061 7.16268 17.0818 7.00842C17.0722 6.94647 17.0638 6.88412 17.055 6.82177C17.0362 6.68229 17.0206 6.54081 17.0082 6.39773C17.003 6.33699 16.9966 6.27664 16.9926 6.21509C16.979 6.01366 16.9702 5.80983 16.9702 5.60281V4.40383H16.736L15.2545 5.88537C15.1794 5.96051 15.0779 6.00247 14.9719 6.00247H6.60546C6.69738 8.52712 7.65296 9.82482 8.61095 9.99907H11.375H18.3007ZM9.39029 16.3936H10.1636C10.391 16.3936 10.5765 16.2086 10.5765 15.9808V10.7984H8.97784V13.1964V15.9808C8.97784 16.2082 9.16288 16.3936 9.39029 16.3936ZM8.17852 15.5943V13.9957H4.18192V15.5943H8.17852ZM1.78395 17.5571C1.78395 17.7968 1.97899 17.9919 2.21878 17.9919H2.94736C3.18716 17.9919 3.38219 17.7968 3.38219 17.5571V16.3932V13.196V11.6325C3.38219 11.3927 3.18716 11.1977 2.94736 11.1977H2.21878C1.97899 11.1977 1.78395 11.3927 1.78395 11.6325V17.5571Z" fill="#E01C08"/>
<path d="M12.175 8.80005C11.9543 8.80005 11.7754 8.62112 11.7754 8.40039C11.7754 8.17967 11.9543 8.00073 12.175 8.00073C12.3958 8.00073 12.5747 8.17967 12.5747 8.40039C12.5747 8.62112 12.3958 8.80005 12.175 8.80005Z" fill="#E01C08"/>
<path d="M13.7737 8.80005C13.553 8.80005 13.374 8.62112 13.374 8.40039C13.374 8.17967 13.553 8.00073 13.7737 8.00073C13.9944 8.00073 14.1733 8.17967 14.1733 8.40039C14.1733 8.62112 13.9944 8.80005 13.7737 8.80005Z" fill="#E01C08"/>
<path d="M15.3723 8.80005C15.1516 8.80005 14.9727 8.62112 14.9727 8.40039C14.9727 8.17967 15.1516 8.00073 15.3723 8.00073C15.593 8.00073 15.772 8.17967 15.772 8.40039C15.772 8.62112 15.593 8.80005 15.3723 8.80005Z" fill="#E01C08"/>
</svg>
