<svg width="34" height="35" viewBox="0 0 34 35" fill="none" xmlns="http://www.w3.org/2000/svg">
<g clip-path="url(#clip0_95_1022)">
<path d="M32.5838 21.993C32.4739 21.8899 32.3756 21.7987 32.2873 21.7168C31.941 21.3956 31.7672 21.2343 31.6815 21.0858C31.5958 20.9374 31.5431 20.7063 31.438 20.2458C31.4112 20.1283 31.3813 19.9976 31.3469 19.8509C31.152 19.019 30.4479 18.4282 29.5949 18.3807C29.4445 18.3723 29.3105 18.3656 29.1901 18.3597C28.7184 18.3362 28.4816 18.3244 28.3205 18.2658C28.1595 18.2072 27.9705 18.064 27.5941 17.7787C27.498 17.706 27.3911 17.625 27.2705 17.5348C26.5866 17.0228 25.6674 17.0228 24.9834 17.5348C24.8629 17.625 24.756 17.706 24.66 17.7787C24.2834 18.064 24.0945 18.2071 23.9334 18.2658C23.8659 18.2903 23.7849 18.3066 23.6793 18.319C21.9369 16.7549 19.8509 15.6764 17.6078 15.1571C20.034 13.9922 21.7131 11.5108 21.7131 8.64443C21.7132 4.6635 18.4745 1.4248 14.4936 1.4248C10.5126 1.4248 7.27395 4.6635 7.27395 8.64443C7.27395 11.5109 8.95323 13.9925 11.3796 15.1573C9.12011 15.6809 7.01663 16.7714 5.26808 18.3526C2.75434 20.6259 1.17215 23.7258 0.813086 27.0813C0.797016 27.2312 0.845426 27.3808 0.946165 27.4929C1.0469 27.605 1.19054 27.6691 1.34128 27.6691L14.4926 27.669C14.4929 27.669 14.4932 27.6691 14.4935 27.6691C14.4938 27.6691 14.4941 27.669 14.4944 27.669H19.8456C20.0338 28.1042 20.3825 28.4635 20.8462 28.6621C20.9846 28.7214 21.1083 28.7736 21.2193 28.8203C21.2758 28.8441 21.3284 28.8663 21.3779 28.8873L19.8976 32.0668C19.7944 32.2886 19.8227 32.5468 19.9715 32.7407C20.1202 32.9346 20.362 33.0289 20.6029 32.9868L22.0969 32.7258L22.8588 34.037C22.9766 34.2397 23.1911 34.3624 23.4237 34.3624C23.4337 34.3624 23.4437 34.3622 23.4538 34.3617C23.6979 34.3506 23.9137 34.2061 24.017 33.9844L25.4738 30.8554C25.7982 30.7564 25.9825 30.7065 26.127 30.7065C26.2715 30.7065 26.4558 30.7564 26.7803 30.8554L28.237 33.9843C28.3401 34.206 28.5559 34.3506 28.8001 34.3617C28.8102 34.3622 28.8203 34.3624 28.8303 34.3624C29.063 34.3624 29.2774 34.2397 29.3952 34.037L30.1571 32.7258L31.6511 32.9868C31.8922 33.0289 32.1341 32.9345 32.2828 32.7404C32.4314 32.5464 32.4596 32.2881 32.3563 32.0667L30.8761 28.8873C30.9255 28.8663 30.9782 28.8441 31.0347 28.8203C31.1457 28.7736 31.2693 28.7214 31.4078 28.6621C32.1932 28.3258 32.6528 27.5298 32.5514 26.6814C32.5335 26.5317 32.5168 26.3987 32.5018 26.2791C32.443 25.8104 32.4135 25.5752 32.4433 25.4064C32.4731 25.2376 32.5812 25.0266 32.7968 24.6064C32.8517 24.4992 32.9129 24.3799 32.9809 24.2454C33.3664 23.4829 33.2068 22.5778 32.5838 21.993ZM19.2732 24.2454C19.3411 24.3799 19.4023 24.4992 19.4572 24.6064C19.6728 25.0268 19.781 25.2377 19.8107 25.4065C19.8405 25.5753 19.811 25.8105 19.7522 26.2792C19.7398 26.3783 19.7262 26.4873 19.7117 26.6066H15.6904L17.0305 25.1251C17.144 24.9995 17.191 24.8272 17.1568 24.6614L16.474 21.3512L16.6068 21.5086C16.7083 21.629 16.8572 21.6974 17.0128 21.6974C17.0295 21.6974 17.0463 21.6966 17.0631 21.695C17.2365 21.6785 17.3909 21.578 17.4762 21.4261L19.9161 17.078C20.7171 17.4567 21.48 17.9206 22.192 18.4648C21.5572 18.6615 21.065 19.1771 20.9071 19.8511C20.8727 19.9977 20.8429 20.1285 20.8161 20.2459C20.7111 20.7065 20.6583 20.9376 20.5726 21.086C20.4869 21.2345 20.3131 21.3958 19.9668 21.717C19.8785 21.7988 19.7801 21.8901 19.6703 21.9932C19.0473 22.5777 18.8877 23.4829 19.2732 24.2454ZM12.0624 20.2375L10.0538 16.6581C10.4261 16.5198 10.8067 16.3988 11.1943 16.2954L13.7304 18.2597L12.0624 20.2375ZM13.9491 19.6483L14.4935 19.0028L15.0378 19.6483L16.0617 24.6121L14.4934 26.3459L12.9252 24.6121L13.9491 19.6483ZM15.2567 18.2597L17.79 16.2975C18.1763 16.4011 18.5569 16.5229 18.9308 16.6624L16.9247 20.2375L15.2567 18.2597ZM8.33645 8.64443C8.33645 5.24941 11.0986 2.4873 14.4936 2.4873C17.8886 2.4873 20.6507 5.24941 20.6507 8.64443C20.6507 12.0386 17.8901 14.8001 14.4962 14.8015C14.4953 14.8015 14.4944 14.8015 14.4935 14.8015C14.4926 14.8015 14.4918 14.8015 14.4908 14.8015C11.0971 14.8 8.33645 12.0386 8.33645 8.64443ZM14.4936 15.864H14.4962C15.1466 15.8642 15.7908 15.9144 16.4244 16.0113L14.4935 17.5069L12.5611 16.0101C13.1909 15.9144 13.8353 15.8642 14.4908 15.864C14.4918 15.864 14.4927 15.864 14.4936 15.864ZM9.06805 17.0726L11.5109 21.426C11.5962 21.5779 11.7505 21.6784 11.924 21.6948C11.9408 21.6964 11.9576 21.6972 11.9743 21.6972C12.13 21.6972 12.2789 21.6288 12.3803 21.5085L12.5131 21.3511L11.8303 24.6613C11.7961 24.8272 11.843 24.9994 11.9566 25.1251L13.2967 26.6066L1.94611 26.6067C2.60273 22.3345 5.34657 18.8252 9.06805 17.0726ZM23.3842 32.8263L22.8296 31.8717C22.7179 31.6794 22.4982 31.5772 22.2788 31.6153L21.1914 31.8053L22.2586 29.5132C22.3302 29.6175 22.4143 29.7477 22.5206 29.9122C22.5859 30.0133 22.6587 30.126 22.7411 30.2521C23.0741 30.7612 23.608 31.0658 24.183 31.1105L23.3842 32.8263ZM29.9753 31.6153C29.7561 31.577 29.5362 31.6793 29.4245 31.8717L28.8699 32.8262L28.0715 31.1113C28.6463 31.0664 29.1802 30.7611 29.513 30.252C29.5954 30.126 29.6682 30.0133 29.7335 29.9122C29.8398 29.7476 29.9239 29.6175 29.9955 29.5132L31.0627 31.8053L29.9753 31.6153ZM32.0327 23.7661C31.9657 23.8985 31.9055 24.016 31.8514 24.1215C31.3221 25.1536 31.3033 25.2606 31.4476 26.4114C31.4624 26.529 31.4788 26.6601 31.4964 26.8074C31.5421 27.1893 31.3431 27.5339 30.9895 27.6854C30.8531 27.7437 30.7314 27.7951 30.6221 27.8411C29.5534 28.2916 29.4701 28.3614 28.841 29.3358C28.7766 29.4354 28.705 29.5463 28.6238 29.6705C28.4133 29.9924 28.0392 30.1285 27.6712 30.0172C27.5292 29.9743 27.403 29.9353 27.2897 29.9003C26.7355 29.7293 26.4313 29.6439 26.1271 29.6439C25.8229 29.6439 25.5186 29.7294 24.9645 29.9003C24.8512 29.9353 24.725 29.9742 24.5829 30.0172C24.2148 30.1282 23.8408 29.9924 23.6303 29.6705C23.5491 29.5463 23.4775 29.4354 23.4132 29.3358C22.784 28.3614 22.7008 28.2916 21.632 27.8411C21.5227 27.7951 21.401 27.7438 21.2646 27.6854C20.9111 27.5339 20.7121 27.1893 20.7577 26.8074C20.7753 26.6601 20.7918 26.529 20.8065 26.4114C20.9508 25.2606 20.9321 25.1536 20.4027 24.1215C20.3486 24.016 20.2884 23.8985 20.2214 23.7661C20.0479 23.4229 20.1171 23.0309 20.3974 22.7678C20.5056 22.6662 20.6024 22.5764 20.6894 22.4957C21.5397 21.707 21.594 21.6129 21.852 20.4821C21.8783 20.3665 21.9078 20.2377 21.9416 20.0933C22.0293 19.7187 22.3342 19.4629 22.7182 19.4416C22.8663 19.4333 22.9983 19.4268 23.1168 19.4209C24.2751 19.3632 24.3771 19.326 25.3017 18.6256C25.3962 18.554 25.5015 18.4742 25.6202 18.3853C25.9282 18.1548 26.326 18.1549 26.634 18.3853C26.7528 18.4741 26.858 18.554 26.9526 18.6256C27.877 19.3259 27.9791 19.3631 29.1374 19.4208C29.2559 19.4267 29.3878 19.4333 29.536 19.4416C29.92 19.4629 30.2249 19.7187 30.3126 20.0932C30.3465 20.2376 30.3758 20.3665 30.4023 20.4821C30.6602 21.6128 30.7146 21.7069 31.5648 22.4956C31.6518 22.5763 31.7486 22.6661 31.8567 22.7676C32.1371 23.0309 32.2062 23.4229 32.0327 23.7661ZM26.127 20.1565C23.9338 20.1565 22.1495 21.9408 22.1495 24.1339C22.1495 26.3271 23.9338 28.1114 26.127 28.1114C28.3202 28.1114 30.1046 26.3271 30.1046 24.134C30.1046 21.9409 28.3203 20.1565 26.127 20.1565ZM26.127 27.049C24.5197 27.049 23.212 25.7413 23.212 24.134C23.212 22.5267 24.5197 21.219 26.127 21.219C27.7344 21.219 29.0421 22.5267 29.0421 24.134C29.0421 25.7413 27.7344 27.049 26.127 27.049Z" fill="white"/>
</g>
<defs>
<clipPath id="clip0_95_1022">
<rect width="34" height="34" fill="white" transform="translate(0 0.893555)"/>
</clipPath>
</defs>
</svg>
