<svg width="35" height="35" viewBox="0 0 35 35" fill="none" xmlns="http://www.w3.org/2000/svg">
<path d="M29.5032 21.9785L25.7604 19.7458C24.8874 19.2244 23.8474 19.0582 22.8554 19.2815C21.8633 19.5048 20.9949 20.1005 20.4295 20.9457L19.35 22.5565C16.2673 21.042 13.7756 18.5458 12.2666 15.4604L13.8689 14.3936C14.7153 13.8312 15.3135 12.9654 15.5402 11.9748C15.7669 10.9842 15.6047 9.94436 15.0872 9.0698L12.8772 5.3298C12.5363 4.75947 12.0264 4.30933 11.4182 4.04178C10.81 3.77423 10.1337 3.70254 9.48288 3.83664C8.46816 4.04111 7.50614 4.45147 6.65625 5.04235C5.80636 5.63323 5.08664 6.39209 4.54155 7.27205C4.0039 8.13032 3.65069 9.09106 3.50435 10.0932C3.35802 11.0953 3.42177 12.117 3.69155 13.0931C4.88857 17.4018 7.18041 21.3273 10.3441 24.4878C13.5078 27.6483 17.4356 29.9361 21.7455 31.1287C22.7208 31.3984 23.7415 31.4621 24.7427 31.3157C25.7439 31.1694 26.7037 30.8162 27.561 30.2787C28.4411 29.7341 29.2003 29.0147 29.7914 28.165C30.3825 27.3153 30.7931 26.3534 30.9978 25.3388C31.1261 24.6929 31.0513 24.0232 30.7837 23.4215C30.5161 22.8198 30.0688 22.3157 29.5032 21.9785ZM28.9139 24.9251C28.7664 25.653 28.4712 26.3428 28.0465 26.952C27.6218 27.5612 27.0766 28.0768 26.4446 28.4668C25.8347 28.8494 25.1517 29.1008 24.4393 29.205C23.7268 29.3091 23.0005 29.2637 22.3065 29.0717C18.3538 27.9774 14.7516 25.8788 11.8501 22.98C8.94861 20.0812 6.84662 16.481 5.74855 12.5293C5.55562 11.8348 5.50964 11.1078 5.61355 10.3945C5.71747 9.68126 5.96899 8.99753 6.35205 8.38697C6.74553 7.75134 7.2657 7.20357 7.88015 6.77777C8.49459 6.35197 9.19014 6.05728 9.92346 5.91205C9.99246 5.89797 10.0627 5.89085 10.1331 5.8908C10.3179 5.89095 10.4995 5.93923 10.66 6.03089C10.8205 6.12256 10.9543 6.25444 11.0483 6.41355L13.264 10.1521C13.5042 10.5583 13.5794 11.0413 13.474 11.5013C13.3685 11.9613 13.0905 12.3632 12.6973 12.6242L10.3456 14.1896C10.1403 14.3262 9.98883 14.5299 9.91723 14.7659C9.84564 15.0019 9.85836 15.2554 9.95321 15.4831C11.7305 19.7171 15.0933 23.088 19.323 24.8756C19.5503 24.9698 19.8031 24.9824 20.0386 24.9114C20.2741 24.8404 20.4778 24.6901 20.615 24.486L22.1946 22.1286C22.457 21.7353 22.8606 21.458 23.3219 21.3541C23.7831 21.2502 24.2667 21.3277 24.6724 21.5705L28.4166 23.8031C28.6051 23.9161 28.754 24.0845 28.843 24.2853C28.9321 24.4862 28.9568 24.7097 28.9139 24.9251ZM20.7468 14.0791C20.6481 13.9806 20.5698 13.8635 20.5164 13.7347C20.463 13.6059 20.4355 13.4678 20.4355 13.3283C20.4355 13.1888 20.463 13.0507 20.5164 12.9219C20.5698 12.7931 20.6481 12.676 20.7468 12.5775L26.0154 7.30747H23.8592C23.5774 7.30747 23.3072 7.19553 23.1079 6.99627C22.9087 6.79701 22.7967 6.52676 22.7967 6.24497C22.7967 5.96318 22.9087 5.69292 23.1079 5.49367C23.3072 5.29441 23.5774 5.18247 23.8592 5.18247H28.581C28.8624 5.18359 29.132 5.29589 29.331 5.4949C29.53 5.69392 29.6423 5.96352 29.6435 6.24497V10.9667C29.6435 11.2485 29.5315 11.5188 29.3323 11.718C29.133 11.9173 28.8628 12.0292 28.581 12.0292C28.2992 12.0292 28.0289 11.9173 27.8297 11.718C27.6304 11.5188 27.5185 11.2485 27.5185 10.9667V8.81055L22.2485 14.0791C22.15 14.178 22.033 14.2564 21.9041 14.31C21.7753 14.3635 21.6372 14.391 21.4976 14.391C21.3581 14.391 21.22 14.3635 21.0911 14.31C20.9623 14.2564 20.8453 14.178 20.7468 14.0791Z" fill="white"/>
</svg>
