<svg width="60" height="60" viewBox="0 0 60 60" fill="none" xmlns="http://www.w3.org/2000/svg">
<path d="M30.3222 3.7135C30.4141 3.71375 30.506 3.714 30.6007 3.71426C32.0673 3.7207 33.483 3.79866 34.9218 4.10168C35.0341 4.12434 35.1464 4.147 35.262 4.17035C41.4666 5.44792 41.4666 5.44792 42.7734 7.14856C42.8345 7.62025 42.8147 7.88784 42.5976 8.31311C42.259 8.59242 42.0599 8.60461 41.629 8.59266C41.1541 8.52401 40.762 8.30041 40.3417 8.07873C34.8476 5.34061 28.4388 5.03454 22.6318 6.9508C18.885 8.23584 15.6342 10.282 12.7734 13.0079C12.6821 13.093 12.5909 13.178 12.4969 13.2657C8.55912 17.0428 5.94504 22.8954 5.83138 28.3366C5.73008 35.2117 7.68298 41.9435 12.5335 46.9827C12.6522 47.1034 12.7712 47.2238 12.8906 47.3439C12.9492 47.403 13.0079 47.4622 13.0684 47.5231C17.4643 51.8952 23.7989 54.0819 29.9194 54.0675C30.0732 54.0674 30.0732 54.0674 30.2301 54.0673C36.8698 54.0484 42.9824 51.4647 47.671 46.7827C50.9736 43.3228 52.9086 38.8751 53.789 34.2189C53.8082 34.1203 53.8274 34.0218 53.8471 33.9203C54.7176 29.275 54.1129 24.1759 52.039 19.9174C51.9822 19.8006 51.9822 19.8006 51.9243 19.6814C51.8185 19.4675 51.7093 19.2552 51.6 19.0431C51.4109 18.542 51.3983 18.227 51.4452 17.6954C51.7441 17.3439 51.9291 17.2437 52.3827 17.1681C52.8386 17.2441 52.9878 17.3714 53.3202 17.6954C53.5399 18.0424 53.7124 18.4068 53.8842 18.7794C53.9346 18.8876 53.985 18.9958 54.037 19.1072C55.6013 22.5561 56.3019 26.1933 56.2866 29.9635C56.2862 30.1266 56.2862 30.1266 56.2859 30.2929C56.2807 31.8612 56.2348 33.3848 55.8984 34.922C55.8783 35.0199 55.8581 35.1179 55.8374 35.2188C54.92 39.6436 52.9955 43.6866 50.039 47.1095C49.9476 47.2161 49.8562 47.3228 49.762 47.4327C49.5082 47.7213 49.2487 48.0025 48.9843 48.2814C48.9294 48.3395 48.8745 48.3975 48.818 48.4574C47.8872 49.4354 46.9029 50.289 45.8202 51.0939C45.7549 51.1435 45.6895 51.1932 45.6222 51.2444C41.3005 54.5257 35.8562 56.2753 30.454 56.2794C30.3602 56.2795 30.2664 56.2796 30.1698 56.2797C28.6044 56.2776 27.0888 56.1849 25.5468 55.8986C25.4403 55.8797 25.3338 55.8608 25.2241 55.8414C20.335 54.9555 15.6473 52.8283 12.029 49.3914C11.8069 49.1841 11.5861 48.9896 11.3515 48.7977C10.912 48.4289 10.564 48.0159 10.1952 47.5782C10.1084 47.4796 10.0215 47.381 9.93202 47.2793C7.0351 43.9282 5.17986 39.787 4.29924 35.464C4.28198 35.3793 4.26472 35.2946 4.24694 35.2074C3.92281 33.4903 3.82273 31.7878 3.83049 30.0441C3.83087 29.8901 3.83087 29.8901 3.83126 29.733C3.83761 28.1204 3.90058 26.5466 4.21868 24.9611C4.25266 24.7891 4.25266 24.7891 4.28734 24.6137C5.25196 19.897 7.28905 15.5223 10.62 12.0178C10.9008 11.724 10.9008 11.724 11.1442 11.4099C11.4844 10.9872 11.8922 10.6628 12.3046 10.3126C12.412 10.217 12.5194 10.1214 12.6301 10.0229C13.6621 9.112 14.774 8.35049 15.9374 7.61731C16.007 7.57306 16.0766 7.52882 16.1482 7.48324C20.2891 4.88113 25.4664 3.68923 30.3222 3.7135Z" fill="white"/>
<path d="M34.1011 12.539C34.1823 12.5585 34.2635 12.578 34.3471 12.598C38.2629 13.5669 38.2629 13.5669 39.1402 14.8827C39.196 15.3105 39.1655 15.5352 38.9717 15.9228C38.629 16.207 38.3974 16.2757 37.9527 16.2524C37.421 16.1249 36.9588 15.8644 36.4789 15.6104C34.7754 14.7145 32.8555 14.2712 30.937 14.1796C30.829 14.1734 30.721 14.1672 30.6097 14.1608C26.5367 14.0397 22.3891 15.613 19.3941 18.3617C19.1772 18.5673 18.9634 18.7756 18.7495 18.9843C18.626 19.0969 18.626 19.0969 18.5001 19.2118C15.8038 21.7337 14.3714 25.5228 14.1879 29.1563C14.0618 33.275 15.3432 37.1881 18.0464 40.3124C18.1667 40.4561 18.1667 40.4561 18.2895 40.6026C20.8987 43.6288 24.7957 45.4035 28.7389 45.7662C32.8986 46.0701 36.9189 44.8519 40.1049 42.1349C43.408 39.2343 45.4581 35.1743 45.8011 30.7836C45.9697 27.9546 45.4233 24.7762 43.8277 22.3827C43.7648 22.0234 43.7647 21.6874 43.8277 21.328C44.1259 20.9684 44.3069 20.8771 44.7652 20.8007C45.2144 20.8756 45.3734 21.0134 45.7027 21.328C45.8867 21.613 46.0259 21.9122 46.1641 22.2216C46.224 22.3533 46.224 22.3533 46.2851 22.4877C46.7109 23.4466 47.0615 24.4191 47.3433 25.4296C47.3805 25.5606 47.3805 25.5606 47.4185 25.6943C48.6452 30.2337 47.6928 35.2213 45.3855 39.2379C44.655 40.4626 43.7604 41.5159 42.773 42.539C42.6805 42.6388 42.5881 42.7387 42.4928 42.8416C39.6291 45.8522 35.2908 47.7153 31.1563 47.8454C29.4921 47.8756 27.8754 47.8314 26.2495 47.4609C26.1571 47.4401 26.0646 47.4194 25.9693 47.398C22.7162 46.6493 19.8889 45.186 17.4605 42.8905C17.3655 42.8031 17.2704 42.7156 17.1725 42.6255C14.0778 39.677 12.3175 35.1813 12.187 30.9374C12.1824 30.7978 12.1777 30.6583 12.1728 30.5144C12.0898 25.5682 13.7794 20.9117 17.2095 17.3207C21.3996 13.042 28.2635 11.0977 34.1011 12.539Z" fill="white"/>
<path d="M48.9848 5.15619C49.2619 5.37498 49.4137 5.54532 49.5707 5.85931C49.6055 6.17483 49.6344 6.48871 49.6591 6.80505C49.6667 6.89836 49.6743 6.99167 49.6822 7.0878C49.7065 7.38628 49.7302 7.6848 49.7538 7.98333C49.7702 8.18552 49.7866 8.3877 49.803 8.58987C49.8433 9.08589 49.8829 9.58196 49.9223 10.0781C50.047 10.0869 50.1717 10.0957 50.3002 10.1048C50.7645 10.1379 51.2285 10.1731 51.6925 10.209C51.8931 10.2241 52.0937 10.2388 52.2944 10.2529C52.5834 10.2733 52.8721 10.2957 53.1609 10.3184C53.2502 10.3243 53.3395 10.3301 53.4314 10.3362C53.9486 10.3792 54.3123 10.4629 54.727 10.7812C54.918 11.1633 54.8989 11.4114 54.8441 11.8359C54.237 12.7318 53.3332 13.4811 52.5677 14.2451C52.4275 14.3853 52.2874 14.5256 52.1473 14.6659C51.8554 14.9579 51.5634 15.2497 51.2712 15.5413C50.8963 15.9155 50.5219 16.2903 50.1477 16.6652C49.8593 16.954 49.5706 17.2426 49.2818 17.531C49.1436 17.6692 49.0054 17.8075 48.8674 17.9458C48.6753 18.1382 48.4828 18.3302 48.2902 18.5222C48.1808 18.6315 48.0714 18.7408 47.9586 18.8535C47.5494 19.2396 47.3194 19.2375 46.7655 19.2407C46.6123 19.2428 46.4591 19.245 46.3013 19.2472C45.8535 19.2395 45.4464 19.1709 45.0093 19.0752C44.0461 18.8894 43.0718 18.7207 42.1624 19.171C41.2841 19.7845 40.5605 20.5633 39.8363 21.3467C39.5201 21.6849 39.1939 22.0132 38.8688 22.3427C38.2565 22.966 37.6534 23.5974 37.0533 24.2323C36.3695 24.955 35.6763 25.6683 34.9819 26.3808C34.1357 27.2493 33.2906 28.119 32.4535 28.9964C32.3946 29.0581 32.3357 29.1198 32.275 29.1833C31.9991 29.4724 31.7236 29.7619 31.4487 30.0519C31.3533 30.152 31.258 30.2521 31.1598 30.3552C31.0353 30.4865 31.0353 30.4865 30.9084 30.6203C30.5921 30.929 30.4742 30.937 30.015 30.9741C29.6688 30.9671 29.5445 30.9451 29.2387 30.7617C29.0402 30.4309 28.9748 30.1667 28.996 29.7798C29.2339 28.8959 30.3596 28.1214 31.002 27.5155C31.2279 27.3008 31.4538 27.0861 31.6795 26.8713C31.7678 26.7873 31.7678 26.7873 31.8579 26.7017C32.6837 25.916 33.5002 25.1207 34.3173 24.326C34.9813 23.6808 35.6482 23.0391 36.3223 22.4045C36.9135 21.848 37.4982 21.2856 38.0763 20.7155C38.3815 20.4151 38.6888 20.1183 39.0041 19.8285C40.519 18.4817 40.519 18.4817 41.1123 16.6238C41.0868 15.9466 40.9865 15.2948 40.8474 14.6323C40.7586 14.179 40.734 13.74 40.7157 13.2787C40.7083 13.155 40.7009 13.0313 40.6933 12.9038C40.9536 11.829 42.2853 10.9011 43.0581 10.1298C43.1983 9.98955 43.3384 9.84929 43.4785 9.70901C43.7704 9.417 44.0624 9.1252 44.3546 8.83354C44.7295 8.45933 45.1039 8.08458 45.4781 7.70968C45.7665 7.42085 46.0552 7.13229 46.3439 6.84383C46.4822 6.70565 46.6204 6.5674 46.7584 6.42905C46.9505 6.23665 47.143 6.04463 47.3356 5.8527C47.445 5.74337 47.5544 5.63404 47.6672 5.5214C48.1004 5.11273 48.3935 5.10521 48.9848 5.15619ZM47.5785 8.43744C46.9423 9.01338 46.3137 9.59651 45.6931 10.1893C45.4045 10.4645 45.1141 10.7369 44.8178 11.0037C43.3593 12.227 43.3593 12.227 42.6462 13.9057C42.647 14.4305 42.7222 14.9301 42.8354 15.4417C42.9102 15.7932 42.9342 16.1432 42.9569 16.5014C42.9734 16.665 42.9902 16.8286 43.0082 16.9921C43.4574 17.0318 43.9066 17.0707 44.3559 17.1093C44.4822 17.1205 44.6084 17.1317 44.7386 17.1432C44.8624 17.1538 44.9863 17.1643 45.1139 17.1752C45.2833 17.19 45.2833 17.19 45.4561 17.205C45.5764 17.2121 45.6967 17.2192 45.8207 17.2265C46.0393 17.2606 46.0393 17.2606 46.2622 17.2954C46.8706 17.2889 47.187 16.9042 47.597 16.4939C47.6972 16.3889 47.7975 16.2838 47.9008 16.1755C48.0061 16.0688 48.1114 15.9622 48.2199 15.8523C48.4983 15.5696 48.7745 15.285 49.0499 14.9992C49.3318 14.7077 49.6164 14.4188 49.9008 14.1297C50.4573 13.5628 51.0111 12.9934 51.5629 12.4218C51.2731 12.132 51.1629 12.1503 50.7623 12.1256C50.6493 12.1174 50.5364 12.1092 50.4201 12.1007C50.1824 12.0854 49.9446 12.0704 49.7069 12.0558C48.5652 11.9714 48.5652 11.9714 48.1645 11.6015C48.0601 11.3429 48.0601 11.3429 48.018 11.0375C48.0017 10.9245 47.9853 10.8115 47.9685 10.6951C47.9121 10.1337 47.8779 9.5719 47.8532 9.00827C47.8463 8.65689 47.8463 8.65689 47.5785 8.43744Z" fill="white"/>
<path d="M33.3986 21.211C33.6872 21.6438 33.7118 21.9977 33.633 22.5001C33.4572 22.793 33.4572 22.793 33.1642 22.9688C32.5721 23.028 32.127 22.9506 31.5515 22.7953C29.7219 22.3706 27.8132 22.7297 26.2053 23.6692C24.4483 24.7919 23.3219 26.3751 22.7826 28.3823C22.4769 30.4728 22.811 32.4129 23.9064 34.2188C24.2297 34.6425 24.5788 35.02 24.9611 35.3907C25.0271 35.4577 25.0931 35.5248 25.1612 35.5939C26.4337 36.7952 28.2898 37.274 30.0002 37.3243C32.0942 37.2627 33.9091 36.5394 35.3908 35.0391C35.4568 34.9757 35.5228 34.9122 35.5909 34.8469C37.0395 33.3332 37.3233 31.2887 37.3011 29.2914C37.2823 28.7554 37.1743 28.2894 37.0314 27.7735C36.967 27.315 36.9618 26.9521 37.2072 26.543C37.6213 26.2946 37.9667 26.274 38.4377 26.3672C38.9358 26.6904 39.1037 27.221 39.258 27.7735C39.7759 30.5224 39.2756 33.1267 37.7712 35.4635C37.5757 35.7271 37.37 35.9688 37.1486 36.211C37.0548 36.3155 36.961 36.4201 36.8643 36.5278C35.7518 37.7064 34.4578 38.4835 32.9299 39.0235C32.8303 39.061 32.7308 39.0984 32.6282 39.137C30.3228 39.864 27.6133 39.4402 25.502 38.3447C23.2474 37.1143 21.7897 35.3355 20.9685 32.911C20.2161 30.2556 20.5668 27.5416 21.841 25.1148C22.1659 24.5533 22.5502 24.0492 22.9689 23.5547C23.0274 23.485 23.0859 23.4152 23.1461 23.3433C25.3761 20.9054 30.3874 19.4222 33.3986 21.211Z" fill="white"/>
</svg>
