<svg width="50" height="50" viewBox="0 0 50 50" fill="none" xmlns="http://www.w3.org/2000/svg">
<g clip-path="url(#clip0_196_185)">
<path d="M13.2687 1.44608C13.3585 1.44528 13.4482 1.44448 13.5406 1.44366C13.8384 1.44123 14.1362 1.43962 14.434 1.43821C14.5863 1.43743 14.5864 1.43743 14.7418 1.43663C15.2793 1.43402 15.8168 1.43213 16.3543 1.43072C16.91 1.4291 17.4656 1.42472 18.0212 1.41975C18.448 1.41647 18.8749 1.41534 19.3017 1.41478C19.5066 1.41413 19.7114 1.41264 19.9162 1.4103C20.2029 1.40722 20.4894 1.40721 20.7761 1.40793C20.8607 1.40633 20.9454 1.40473 21.0327 1.40308C21.4594 1.4075 21.6287 1.42521 21.9772 1.69458C22.2095 2.00897 22.2255 2.16888 22.216 2.5563C22.2144 2.66928 22.2128 2.78226 22.2112 2.89867C22.2071 3.01568 22.203 3.13269 22.1988 3.25324C22.1955 3.43159 22.1955 3.43159 22.1921 3.61354C22.1864 3.90657 22.1784 4.19935 22.1683 4.49226C22.292 4.48886 22.4158 4.48546 22.5433 4.48196C22.7092 4.47921 22.8752 4.47654 23.0411 4.47395C23.1222 4.47149 23.2034 4.46904 23.287 4.46651C24.0163 4.45799 24.6138 4.59447 25.2262 4.99885C25.8306 5.63142 25.9832 6.27388 25.9769 7.12898C26.0727 7.12811 26.1685 7.12724 26.2672 7.12635C27.1695 7.11843 28.0719 7.11257 28.9743 7.10874C29.4383 7.1067 29.9022 7.10393 30.3661 7.09951C30.8138 7.09526 31.2614 7.09293 31.7091 7.09191C31.88 7.09119 32.0508 7.08978 32.2217 7.08767C32.4609 7.08484 32.7 7.08445 32.9392 7.08463C33.0453 7.08252 33.0453 7.08252 33.1535 7.08037C33.4891 7.08313 33.6606 7.10447 33.928 7.31485C34.1995 7.67492 34.1919 7.89734 34.1911 8.34667C34.1911 8.41147 34.1911 8.47627 34.1912 8.54303C34.1911 8.75757 34.1903 8.97209 34.1896 9.18662C34.1894 9.33523 34.1892 9.48383 34.1891 9.63244C34.1888 10.0238 34.1878 10.4153 34.1867 10.8067C34.1857 11.206 34.1853 11.6052 34.1848 12.0045C34.1837 12.7882 34.1821 13.5719 34.18 14.3555C34.2384 14.3615 34.2968 14.3675 34.3569 14.3737C35.8127 14.528 37.1676 14.9797 38.4769 15.6251C38.5896 15.6806 38.7022 15.7361 38.8183 15.7933C39.5367 16.1647 40.1769 16.6028 40.8206 17.0899C41.0477 17.2538 41.2759 17.4161 41.5042 17.5782C42.9914 16.4219 42.9914 16.4219 43.8148 14.8144C43.8397 14.5191 43.8428 14.2381 43.8275 13.9422C43.803 13.457 43.802 13.1704 44.1272 12.7919C44.26 12.66 44.395 12.5303 44.5316 12.4024C44.6942 12.2359 44.8566 12.0692 45.0187 11.9023C45.1918 11.729 45.3651 11.5559 45.5387 11.3831C45.6713 11.2499 45.6713 11.2499 45.8066 11.114C45.8911 11.0297 45.9755 10.9454 46.0624 10.8586C46.1389 10.7823 46.2153 10.7059 46.2941 10.6273C46.6036 10.3383 46.841 10.3307 47.2591 10.3005C47.5852 10.383 47.6817 10.5581 47.8519 10.8399C47.8935 11.1729 47.8935 11.1729 47.8824 11.5296C47.88 11.6476 47.8776 11.7655 47.8752 11.887C47.8567 12.1405 47.8283 12.3562 47.7542 12.5977C47.8449 12.5816 47.9355 12.5655 48.0289 12.5489C48.6373 12.4659 49.2531 12.3833 49.8233 12.6405C50.0484 12.9586 50.0504 13.1597 50.0415 13.5417C49.9687 13.9445 49.7222 14.1587 49.4304 14.4288C49.3724 14.4858 49.3143 14.5429 49.2545 14.6017C49.0697 14.7822 48.882 14.9594 48.6942 15.1368C48.5686 15.2588 48.4432 15.381 48.3181 15.5034C47.4154 16.3804 47.4154 16.3804 47.1683 16.504C47.0232 16.5002 46.8782 16.4916 46.7334 16.4807C45.7728 16.4533 45.0308 16.5218 44.2955 17.1902C43.7514 17.7071 43.2535 18.2714 42.7738 18.8477C42.8107 18.8965 42.8476 18.9454 42.8856 18.9957C44.9225 21.6988 46.1431 24.5739 46.1246 28.003C46.1243 28.106 46.1243 28.106 46.1241 28.2111C46.1195 29.2511 46.0696 30.2399 45.8011 31.2501C45.7844 31.3138 45.7676 31.3775 45.7503 31.4431C44.7583 35.1231 42.4529 38.1113 39.1861 40.0655C37.7545 40.8876 35.8553 41.6993 34.18 41.6993C34.181 41.8151 34.181 41.8151 34.182 41.9333C34.1879 42.6617 34.1923 43.3902 34.1952 44.1187C34.1967 44.4932 34.1988 44.8677 34.2021 45.2422C34.2053 45.6037 34.2071 45.9653 34.2078 46.3268C34.2084 46.4646 34.2094 46.6024 34.211 46.7402C34.2131 46.9335 34.2132 47.1268 34.2133 47.3201C34.2143 47.485 34.2143 47.485 34.2153 47.6533C34.1756 47.9867 34.086 48.1696 33.8871 48.4376C33.6294 48.5664 33.4374 48.5478 33.1487 48.5483C33.0326 48.5488 32.9164 48.5492 32.7968 48.5497C32.668 48.5496 32.5393 48.5496 32.4067 48.5496C32.2694 48.5499 32.1322 48.5503 31.9949 48.5507C31.6164 48.5517 31.2379 48.552 30.8594 48.5523C30.4518 48.5527 30.0441 48.5536 29.6364 48.5545C28.6513 48.5564 27.6662 48.5574 26.6811 48.5582C26.2176 48.5587 25.7541 48.5592 25.2906 48.5597C23.7505 48.5614 22.2104 48.5628 20.6703 48.5635C20.2705 48.5637 19.8707 48.5639 19.4708 48.564C19.3218 48.5641 19.3218 48.5641 19.1697 48.5642C17.5587 48.565 15.9477 48.5675 14.3367 48.5706C12.6841 48.5739 11.0314 48.5756 9.37878 48.576C8.45033 48.5762 7.5219 48.577 6.59346 48.5795C5.80301 48.5816 5.01257 48.5824 4.22212 48.5815C3.81859 48.581 3.41508 48.5812 3.01156 48.5831C2.64241 48.5848 2.2733 48.5847 1.90416 48.5832C1.70679 48.5829 1.50942 48.5845 1.31205 48.5861C1.1954 48.5853 1.07874 48.5844 0.958549 48.5836C0.80719 48.5837 0.807191 48.5837 0.652775 48.5839C0.30966 48.5201 0.198814 48.4307 0.000333108 48.1446C-0.0487438 47.836 -0.0487444 47.836 -0.049097 47.4632C-0.0499925 47.3598 -0.0499924 47.3598 -0.050906 47.2543C-0.0524358 47.0222 -0.05117 46.7901 -0.049927 46.558C-0.0504468 46.3903 -0.0511361 46.2227 -0.0519819 46.0551C-0.0538075 45.5935 -0.0531829 45.132 -0.0521622 44.6704C-0.0514813 44.173 -0.0530408 43.6756 -0.0543109 43.1782C-0.0564279 42.2034 -0.0564116 41.2286 -0.0556178 40.2539C-0.0550034 39.4619 -0.0551123 38.6699 -0.0557415 37.8779C-0.0558295 37.7653 -0.0559175 37.6527 -0.0560082 37.5367C-0.056189 37.308 -0.0563706 37.0793 -0.0565536 36.8506C-0.0581738 34.7046 -0.0573198 32.5586 -0.0556759 30.4125C-0.0542404 28.4476 -0.0556701 26.4827 -0.0584862 24.5177C-0.061354 22.5018 -0.0624281 20.4859 -0.0614948 18.4699C-0.0613949 18.2421 -0.0612986 18.0142 -0.0612042 17.7863C-0.0611577 17.6742 -0.0611106 17.5621 -0.0610627 17.4466C-0.060851 16.6552 -0.0618108 15.8639 -0.0632323 15.0725C-0.0649396 14.1086 -0.0649373 13.1446 -0.0627092 12.1807C-0.0616176 11.6885 -0.0613205 11.1964 -0.0631294 10.7043C-0.0647627 10.2542 -0.0641622 9.80414 -0.0617421 9.35404C-0.0612626 9.1908 -0.0616145 9.02756 -0.0628627 8.86433C-0.0644326 8.64315 -0.063024 8.4222 -0.0608406 8.20103C-0.0608143 8.07798 -0.0607873 7.95493 -0.0607602 7.82815C0.000333115 7.5196 0.000332423 7.5196 0.226321 7.28463C0.569726 7.08084 0.864479 7.07689 1.25225 7.08463C1.32756 7.08457 1.40288 7.08452 1.48048 7.08446C1.72834 7.08473 1.97608 7.08776 2.22392 7.09083C2.39619 7.09156 2.56846 7.09211 2.74073 7.0925C3.19333 7.09399 3.64587 7.09783 4.09845 7.10215C4.5606 7.10615 5.02275 7.10793 5.48491 7.1099C6.39112 7.11409 7.29728 7.12075 8.20346 7.12898C8.20169 7.06329 8.19992 6.99761 8.19809 6.92994C8.19672 6.84305 8.19534 6.75616 8.19392 6.66663C8.19127 6.5379 8.19127 6.5379 8.18856 6.40657C8.22183 5.83909 8.50408 5.4271 8.91147 5.04768C9.53806 4.50639 10.2476 4.45035 11.0355 4.47395C11.1629 4.47593 11.1629 4.47593 11.293 4.47795C11.5001 4.48137 11.7073 4.48662 11.9144 4.49226C11.9129 4.42086 11.9113 4.34946 11.9097 4.27589C11.9036 3.95129 11.8998 3.62671 11.8961 3.30207C11.8936 3.18972 11.8912 3.07737 11.8886 2.96161C11.8877 2.85303 11.8868 2.74446 11.8858 2.63259C11.8843 2.53287 11.8827 2.43314 11.8811 2.3304C11.9197 2.00585 12.0152 1.82454 12.2074 1.56257C12.5358 1.39835 12.9074 1.44784 13.2687 1.44608ZM13.5746 3.12507C13.5746 4.15632 13.5746 5.18757 13.5746 6.25007C15.8626 6.25007 18.1507 6.25007 20.5081 6.25007C20.5081 5.21882 20.5081 4.18757 20.5081 3.12507C18.2201 3.12507 15.932 3.12507 13.5746 3.12507ZM9.86362 6.54304C9.86362 8.28327 9.86362 10.0235 9.86362 11.8165C14.6331 11.8165 19.4027 11.8165 24.3167 11.8165C24.3167 10.1085 24.3167 8.40046 24.3167 6.64069C23.9143 6.15672 23.9143 6.15672 23.6206 6.09698C23.5201 6.10082 23.5201 6.10082 23.4176 6.10473C23.3076 6.10709 23.3076 6.10709 23.1954 6.1095C23.1203 6.11359 23.0452 6.11768 22.9679 6.1219C22.8909 6.1241 22.8139 6.1263 22.7346 6.12857C22.5457 6.13429 22.357 6.14305 22.1683 6.15241C22.1624 6.24066 22.1565 6.3289 22.1504 6.41982C22.1381 6.5926 22.1381 6.5926 22.1256 6.76887C22.1137 6.94051 22.1137 6.94051 22.1015 7.11562C22.0706 7.42194 22.0706 7.42194 21.973 7.71491C21.5736 7.86417 21.1419 7.82774 20.721 7.8283C20.6341 7.82879 20.5472 7.82927 20.4577 7.82977C20.1705 7.8312 19.8833 7.83187 19.5961 7.83241C19.3963 7.83297 19.1966 7.83353 18.9969 7.83409C18.5784 7.83512 18.1598 7.83569 17.7412 7.83603C17.2048 7.83657 16.6685 7.83891 16.1321 7.84169C15.7197 7.84351 15.3072 7.84402 14.8948 7.84417C14.697 7.84446 14.4993 7.84525 14.3015 7.84653C14.025 7.8482 13.7485 7.84801 13.472 7.84738C13.3903 7.84828 13.3087 7.84918 13.2246 7.85011C12.773 7.84686 12.4765 7.81304 12.1097 7.5196C11.9778 7.25575 11.979 7.01979 11.9571 6.72614C11.9448 6.56564 11.9448 6.56564 11.9323 6.40189C11.9264 6.31957 11.9205 6.23724 11.9144 6.15241C11.6457 6.14185 11.3775 6.13412 11.1087 6.128C11.0328 6.12473 10.9569 6.12145 10.8787 6.11808C10.8051 6.11682 10.7314 6.11556 10.6555 6.11427C10.588 6.11222 10.5205 6.11017 10.451 6.10807C10.1882 6.14889 10.1882 6.14889 9.86362 6.54304ZM1.56283 8.78913C1.56283 21.3575 1.56283 33.9258 1.56283 46.8751C11.7787 46.8751 21.9945 46.8751 32.5199 46.8751C32.5199 45.1993 32.5199 43.5235 32.5199 41.7969C32.0042 41.7647 31.4886 41.7325 30.9574 41.6993C30.9548 41.9203 30.9523 42.1414 30.9497 42.3691C30.946 42.5838 30.9416 42.7984 30.9371 43.013C30.9343 43.1619 30.9323 43.3108 30.9309 43.4597C30.9288 43.674 30.9242 43.8882 30.9192 44.1025C30.9161 44.2959 30.9161 44.2959 30.913 44.4931C30.8597 44.8243 30.8597 44.8243 30.7276 45.0372C30.3137 45.3217 29.8952 45.2683 29.4045 45.2639C29.2948 45.2644 29.185 45.2649 29.0718 45.2655C28.7026 45.2668 28.3334 45.2654 27.9641 45.2639C27.7 45.2641 27.4358 45.2648 27.1716 45.2655C26.5278 45.2669 25.884 45.2661 25.2402 45.2647C24.4909 45.263 23.7415 45.2633 22.9921 45.2637C21.6554 45.2643 20.3186 45.2629 18.9818 45.2605C17.6839 45.2581 16.386 45.2574 15.0882 45.2585C13.6755 45.2596 12.2629 45.2598 10.8503 45.2584C10.6998 45.2582 10.5492 45.2581 10.3987 45.2579C10.3246 45.2578 10.2505 45.2578 10.1742 45.2577C9.65152 45.2572 9.12885 45.2574 8.60617 45.2578C7.96951 45.2583 7.33287 45.2577 6.69621 45.2558C6.37121 45.2548 6.04624 45.2545 5.72123 45.2551C5.36939 45.2557 5.01759 45.2545 4.66575 45.2528C4.51069 45.2537 4.51069 45.2537 4.3525 45.2546C4.25861 45.2537 4.16472 45.2529 4.06798 45.2521C3.98673 45.252 3.90547 45.2519 3.82175 45.2517C3.56427 45.2062 3.48119 45.1241 3.32065 44.9219C3.19086 44.6624 3.21062 44.4668 3.21043 44.176C3.21011 44.0581 3.2098 43.9403 3.20947 43.8189C3.20962 43.6869 3.20977 43.555 3.20993 43.423C3.20975 43.2837 3.20952 43.1445 3.20926 43.0052C3.20866 42.6212 3.20868 42.2371 3.20879 41.8531C3.20881 41.4394 3.20827 41.0257 3.20781 40.6121C3.207 39.8011 3.20673 38.9901 3.20668 38.1792C3.20663 37.5202 3.20643 36.8613 3.20612 36.2023C3.20526 34.3356 3.20481 32.469 3.20488 30.6023C3.20489 30.5016 3.20489 30.4009 3.20489 30.2971C3.2049 30.1963 3.2049 30.0954 3.20491 29.9915C3.20494 28.3569 3.20401 26.7222 3.20263 25.0875C3.20123 23.4106 3.20056 21.7337 3.20064 20.0568C3.20067 19.1147 3.2004 18.1726 3.19935 17.2305C3.19847 16.4284 3.19825 15.6264 3.19892 14.8243C3.19924 14.4149 3.19924 14.0054 3.19839 13.5959C3.19763 13.2214 3.19776 12.8468 3.19862 12.4723C3.19877 12.3365 3.19858 12.2007 3.19804 12.065C3.19736 11.8809 3.19799 11.6968 3.19868 11.5128C3.19866 11.4104 3.19864 11.308 3.19862 11.2025C3.22348 10.9323 3.27041 10.7728 3.4183 10.5469C3.65012 10.431 3.79836 10.4341 4.05712 10.4292C4.19494 10.4263 4.19494 10.4263 4.33554 10.4233C4.43493 10.4217 4.53432 10.4201 4.63672 10.4184C4.73832 10.4164 4.83992 10.4143 4.94459 10.4122C5.26997 10.4058 5.59536 10.4001 5.92074 10.3944C6.14098 10.3901 6.36121 10.3859 6.58145 10.3816C7.12211 10.3711 7.66278 10.3612 8.20346 10.3516C8.20346 9.83601 8.20346 9.32038 8.20346 8.78913C6.01205 8.78913 3.82065 8.78913 1.56283 8.78913ZM25.9769 8.78913C25.9769 9.30476 25.9769 9.82038 25.9769 10.3516C26.1109 10.3525 26.245 10.3535 26.3831 10.3544C26.8803 10.3583 27.3775 10.3647 27.8747 10.3719C28.0899 10.3747 28.3051 10.3767 28.5203 10.3781C28.8297 10.3802 29.1389 10.3847 29.4483 10.3898C29.5445 10.3899 29.6408 10.39 29.7399 10.3901C30.3921 10.4041 30.3921 10.4041 30.7245 10.5992C30.9138 10.9362 30.9186 11.2488 30.9192 11.6257C30.9208 11.7011 30.9224 11.7764 30.9241 11.854C30.9288 12.0938 30.9309 12.3335 30.933 12.5733C30.9357 12.7362 30.9386 12.8991 30.9417 13.062C30.9493 13.4606 30.9532 13.8591 30.9574 14.2579C31.473 14.2579 31.9886 14.2579 32.5199 14.2579C32.5199 12.4532 32.5199 10.6485 32.5199 8.78913C30.3607 8.78913 28.2015 8.78913 25.9769 8.78913ZM4.78549 12.0118C4.78549 22.4532 4.78549 32.8946 4.78549 43.6524C12.8744 43.6524 20.9632 43.6524 29.2972 43.6524C29.2972 42.9112 29.2972 42.17 29.2972 41.4063C29.0172 41.3298 28.7373 41.2532 28.4488 41.1744C27.6937 40.9549 26.9802 40.6816 26.2699 40.3443C26.1896 40.3066 26.1093 40.2689 26.0266 40.2301C25.6797 40.0603 25.3624 39.9033 25.0681 39.6497C24.0994 38.8457 23.0637 38.9588 21.8631 38.9752C21.6446 38.9752 21.4261 38.9748 21.2075 38.9741C20.6355 38.973 20.0635 38.9763 19.4915 38.9807C18.5733 38.9873 17.6551 38.9875 16.7369 38.9869C16.4166 38.9874 16.0964 38.99 15.7762 38.993C15.5805 38.9936 15.3849 38.9942 15.1893 38.9947C15.1003 38.9961 15.0113 38.9975 14.9197 38.9989C14.5693 38.9985 14.3245 38.9979 14.0077 38.8406C13.8139 38.6074 13.8202 38.3849 13.8156 38.0894C13.893 37.7932 14.0164 37.6875 14.2581 37.5001C14.5277 37.4607 14.759 37.4449 15.0286 37.4468C15.1058 37.4458 15.183 37.4447 15.2626 37.4437C15.5173 37.4408 15.7719 37.4407 16.0266 37.4406C16.2034 37.4391 16.3802 37.4375 16.557 37.4357C17.0219 37.4314 17.4869 37.4294 17.9518 37.428C18.4264 37.4261 18.901 37.422 19.3756 37.4181C20.3065 37.4107 21.2374 37.4058 22.1683 37.4024C21.9731 37.0708 21.771 36.7797 21.5213 36.4869C20.6327 35.3863 19.8821 34.0595 19.4339 32.7149C19.3685 32.7143 19.3031 32.7138 19.2357 32.7132C18.5561 32.7069 17.8765 32.6987 17.197 32.6893C16.9432 32.686 16.6894 32.6833 16.4356 32.6811C16.0713 32.6778 15.707 32.6727 15.3427 32.6672C15.2288 32.6666 15.115 32.666 14.9977 32.6653C14.8394 32.6624 14.8394 32.6624 14.6778 32.6595C14.5848 32.6584 14.4918 32.6573 14.3959 32.6562C14.1207 32.6107 14.0328 32.545 13.8675 32.3243C13.8286 32.1351 13.8286 32.1351 13.8309 31.9337C13.8298 31.834 13.8298 31.834 13.8286 31.7322C13.8799 31.483 13.9619 31.4072 14.1605 31.2501C14.3774 31.2111 14.3774 31.2111 14.633 31.2078C14.7288 31.2059 14.8246 31.204 14.9233 31.202C15.078 31.2011 15.078 31.2011 15.2359 31.2001C15.3416 31.1983 15.4474 31.1966 15.5564 31.1948C15.8948 31.1895 16.233 31.1862 16.5714 31.1829C16.8006 31.1797 17.0298 31.1763 17.259 31.1728C17.8212 31.1645 18.3834 31.1578 18.9456 31.1524C18.9369 31.0947 18.9281 31.037 18.919 30.9775C18.7493 29.8452 18.6071 28.747 18.6344 27.6002C18.6357 27.4888 18.637 27.3773 18.6384 27.2626C18.6417 26.9966 18.6465 26.7308 18.6527 26.4649C18.5985 26.4646 18.5443 26.4642 18.4885 26.4638C17.9245 26.4598 17.3605 26.453 16.7966 26.4446C16.5861 26.4419 16.3756 26.4398 16.1652 26.4384C15.8626 26.4364 15.5601 26.4318 15.2576 26.4268C15.1635 26.4266 15.0694 26.4265 14.9724 26.4264C14.3193 26.4121 14.3193 26.4121 14.0036 26.1806C13.7694 25.8295 13.8148 25.6109 13.8675 25.1954C14.1432 24.921 14.3502 24.8652 14.7328 24.8602C14.8266 24.8583 14.9204 24.8563 15.0171 24.8543C15.1679 24.8534 15.1679 24.8534 15.3217 24.8524C15.4252 24.8507 15.5287 24.8489 15.6353 24.8471C15.9656 24.8418 16.2959 24.8385 16.6263 24.8353C16.8504 24.832 17.0744 24.8287 17.2985 24.8252C17.8475 24.8169 18.3966 24.8102 18.9456 24.8048C18.9665 24.7401 18.9874 24.6754 19.0089 24.6088C19.4546 23.2323 19.9846 21.9678 20.6927 20.7048C20.7992 20.5113 20.8982 20.3151 20.9964 20.1173C20.9114 20.1167 20.8264 20.1161 20.7389 20.1155C19.9385 20.1099 19.1381 20.1028 18.3377 20.0942C17.9262 20.0899 17.5147 20.086 17.1032 20.0834C16.7062 20.0809 16.3092 20.0769 15.9122 20.072C15.7606 20.0704 15.609 20.0693 15.4575 20.0687C15.2454 20.0677 15.0333 20.065 14.8213 20.0618C14.7005 20.0607 14.5797 20.0597 14.4552 20.0585C14.1605 20.0196 14.1605 20.0196 13.9751 19.8823C13.7769 19.5955 13.8146 19.2789 13.8675 18.9454C14.0182 18.733 14.125 18.6702 14.3558 18.5548C14.608 18.5469 14.8575 18.5448 15.1096 18.5471C15.271 18.5477 15.4323 18.5483 15.5937 18.5488C15.6795 18.5493 15.7653 18.5498 15.8537 18.5502C16.3078 18.5521 16.7619 18.5506 17.2161 18.5496C17.7941 18.5484 18.372 18.5482 18.95 18.5524C19.417 18.5557 19.8838 18.5551 20.3507 18.552C20.5283 18.5516 20.7059 18.5525 20.8835 18.5548C21.8503 18.5949 21.8503 18.5949 22.7384 18.2859C22.9325 18.0925 23.0857 17.8996 23.2425 17.6758C24.8073 16.2099 26.9518 15.1812 29.0237 14.6947C29.2004 14.6641 29.2004 14.6641 29.2972 14.5509C29.3058 14.3627 29.3077 14.1742 29.3067 13.9859C29.3064 13.8316 29.3064 13.8316 29.306 13.6742C29.3051 13.5425 29.3042 13.4109 29.3033 13.2752C29.3003 12.6498 29.3003 12.6498 29.2972 12.0118C28.2015 12.0118 27.1058 12.0118 25.9769 12.0118C25.9124 12.3663 25.848 12.7208 25.7816 13.086C25.5021 13.3655 25.3114 13.3061 24.9197 13.3068C24.8503 13.3072 24.781 13.3075 24.7095 13.3079C24.476 13.3089 24.2425 13.3085 24.0089 13.3081C23.842 13.3086 23.675 13.3091 23.508 13.3097C23.0536 13.311 22.5993 13.311 22.1449 13.3108C21.766 13.3107 21.3872 13.3111 21.0084 13.3116C20.1148 13.3127 19.2213 13.3127 18.3278 13.3121C17.4049 13.3116 16.4821 13.3128 15.5593 13.3148C14.7679 13.3166 13.9765 13.3171 13.1852 13.3168C12.7121 13.3167 12.239 13.3169 11.766 13.3183C11.3212 13.3195 10.8764 13.3193 10.4316 13.318C10.2681 13.3178 10.1046 13.3181 9.94116 13.3189C9.71844 13.3199 9.4958 13.3191 9.27309 13.3179C9.14831 13.3179 9.02352 13.3179 8.89496 13.3179C8.59408 13.2813 8.59408 13.2813 8.30112 12.9884C8.26889 12.6661 8.23666 12.3438 8.20346 12.0118C7.07553 12.0118 5.9476 12.0118 4.78549 12.0118ZM45.6199 13.5831C45.3806 13.9824 45.4185 14.487 45.4105 14.9415C45.879 14.9602 46.2517 14.946 46.68 14.7462C46.9108 14.5026 46.9108 14.5026 47.0706 14.2579C46.9619 14.2297 46.8531 14.2015 46.7411 14.1724C46.3871 14.0626 46.3871 14.0626 46.1917 13.8673C46.1529 13.6731 46.1197 13.4777 46.0941 13.2813C45.8885 13.2813 45.7568 13.4478 45.6199 13.5831ZM29.1019 16.3087C29.0364 16.3259 28.971 16.3432 28.9035 16.3609C27.0663 16.861 25.2106 17.9227 23.9261 19.336C23.8496 19.4105 23.773 19.4851 23.6942 19.5618C23.6096 19.6484 23.525 19.7351 23.4378 19.8243C23.3759 19.8855 23.314 19.9466 23.2501 20.0097C21.1144 22.2288 20.153 25.3752 20.2007 28.4051C20.2908 31.5781 21.653 34.3622 23.8285 36.6212C23.8852 36.6841 23.942 36.747 24.0005 36.8119C25.8672 38.8244 28.8645 40.0027 31.5732 40.1489C34.7339 40.2509 37.7059 39.3655 40.1371 37.3048C40.1867 37.2632 40.2364 37.2217 40.2876 37.179C42.5572 35.2668 44.1294 32.3597 44.4339 29.3946C44.5957 26.0743 43.9347 23.0064 41.7919 20.395C41.6101 20.1813 41.6101 20.1813 41.3089 20.2149C41.1133 20.3699 41.1133 20.3699 40.9172 20.5781C40.8432 20.653 40.7692 20.7279 40.693 20.805C40.6163 20.8842 40.5396 20.9634 40.4605 21.045C40.3827 21.1242 40.3048 21.2034 40.2246 21.2849C40.032 21.481 39.8401 21.6777 39.6488 21.8751C39.7828 22.2249 39.9255 22.4884 40.1554 22.7845C41.5616 24.762 41.9604 27.3681 41.5775 29.7269C41.0812 32.1073 39.8153 34.3294 37.7766 35.7162C35.5495 37.1562 32.9423 37.6877 30.3214 37.1997C27.8877 36.6556 25.7641 35.188 24.4239 33.0846C23.1381 30.9934 22.6812 28.4381 23.1571 26.0194C23.2128 25.8083 23.274 25.5987 23.3402 25.3907C23.3591 25.33 23.3779 25.2694 23.3974 25.2069C24.1733 22.7725 25.7839 20.8256 28.0584 19.6395C30.3211 18.5203 32.9672 18.3487 35.3642 19.1246C36.4272 19.4914 37.385 20.0236 38.2816 20.7032C38.5998 20.5639 38.8092 20.3939 39.0522 20.147C39.156 20.0422 39.156 20.0422 39.262 19.9353C39.3332 19.8624 39.4045 19.7895 39.4779 19.7144C39.5506 19.6408 39.6234 19.5671 39.6984 19.4913C39.8776 19.3097 40.0564 19.1278 40.2347 18.9454C39.9399 18.5345 39.6045 18.2602 39.1849 17.9871C39.1205 17.9451 39.056 17.903 38.9897 17.8596C36.0263 15.9627 32.5151 15.385 29.1019 16.3087ZM27.3441 22.0704C27.2591 22.1342 27.2591 22.1342 27.1724 22.1993C25.7498 23.3044 24.8373 25.1929 24.6097 26.9532C24.4275 29.0703 24.8444 31.0472 26.16 32.7515C26.2919 32.9042 26.4262 33.0547 26.5628 33.2032C26.636 33.2853 26.7091 33.3673 26.7845 33.4519C27.6759 34.4024 28.7585 35.0173 29.9808 35.4493C30.0638 35.4805 30.1467 35.5117 30.2322 35.5439C32.0112 36.1049 34.0987 35.8182 35.7608 35.0465C37.7441 33.986 39.1391 32.3559 39.8475 30.2186C40.4241 28.1645 40.173 26.0828 39.1605 24.2188C38.9487 23.8792 38.7251 23.5561 38.4769 23.2423C38.1587 23.3816 37.9493 23.5515 37.7063 23.7984C37.6025 23.9032 37.6025 23.9032 37.4965 24.0102C37.4253 24.083 37.354 24.1559 37.2806 24.231C37.2078 24.3047 37.1351 24.3783 37.0601 24.4542C36.8809 24.6357 36.7021 24.8177 36.5238 25.0001C36.7073 25.4613 36.9019 25.9173 37.0979 26.3734C37.5445 27.5436 37.4185 29.0487 36.9144 30.1758C36.2031 31.5407 35.2327 32.3631 33.7825 32.8324C32.3436 33.2238 30.9745 32.9915 29.6703 32.2968C28.4598 31.5591 27.7906 30.4578 27.4417 29.1016C27.1602 27.6398 27.4552 26.3622 28.223 25.0977C28.9779 24.059 30.0694 23.3485 31.3335 23.087C32.6207 22.9193 33.8744 23.0118 34.9674 23.7508C35.1551 23.8528 35.1551 23.8528 35.34 23.7579C35.5709 23.6186 35.738 23.4642 35.9272 23.272C35.9964 23.2021 36.0656 23.1323 36.137 23.0603C36.2082 22.9874 36.2795 22.9145 36.3529 22.8394C36.4256 22.7658 36.4984 22.6921 36.5734 22.6163C36.7526 22.4347 36.9314 22.2528 37.1097 22.0704C36.7972 21.363 35.8721 21.0189 35.1757 20.7463C32.4467 19.7903 29.5837 20.1794 27.3441 22.0704ZM29.5108 25.9888C29.0086 26.7613 28.7674 27.7532 28.9562 28.6549C29.1883 29.5342 29.6425 30.3016 30.3714 30.8594C31.3318 31.3866 32.2271 31.622 33.3072 31.3355C34.2808 31.0084 35.0087 30.3814 35.4801 29.4739C35.8394 28.7295 35.8808 27.8291 35.6552 27.0371C35.5626 26.8081 35.4651 26.5867 35.3519 26.3673C34.9858 26.5193 34.7572 26.7455 34.4814 27.0268C34.391 27.1183 34.3006 27.2097 34.2075 27.304C34.1129 27.4006 34.0182 27.4973 33.9237 27.5941C33.7376 27.7837 33.5511 27.973 33.3644 28.1621C33.2408 28.2883 33.2408 28.2883 33.1147 28.4171C32.8236 28.6968 32.7484 28.7089 32.3307 28.7354C32.0894 28.7302 31.9561 28.7221 31.7386 28.6133C31.5683 28.2727 31.5391 27.9971 31.641 27.6368C31.8879 27.2686 32.2037 26.9685 32.5199 26.6602C32.7154 26.4667 32.9106 26.2729 33.1056 26.0789C33.2391 25.9465 33.3733 25.8148 33.5083 25.6838C33.57 25.6234 33.6316 25.5629 33.6952 25.5006C33.7509 25.4464 33.8067 25.3923 33.8642 25.3365C34.0058 25.2016 34.0058 25.2016 33.9847 25.0001C32.3886 24.193 30.6411 24.6044 29.5108 25.9888Z" fill="white"/>
<path d="M12.1094 16.7969C12.3862 17.0201 12.4032 17.1918 12.4756 17.5416C12.4469 18.1003 12.0631 18.4158 11.6824 18.789C11.4952 18.9732 11.3114 19.1606 11.1275 19.3482C10.8528 19.6269 10.5777 19.9052 10.3004 20.1813C10.2421 20.2396 10.1838 20.2978 10.1237 20.3578C9.79734 20.6588 9.54679 20.7647 9.09958 20.7524C8.66926 20.6529 8.40118 20.33 8.10547 20.0196C8.03913 19.9551 7.97279 19.8907 7.90443 19.8243C7.59767 19.5083 7.43782 19.3168 7.34863 18.8782C7.44304 18.4613 7.56091 18.3117 7.91016 18.0665C8.25075 18.0045 8.46888 17.9871 8.7677 18.1771C8.91137 18.2957 9.04634 18.4247 9.17969 18.5547C9.49611 18.4164 9.7009 18.2499 9.93996 18.002C10.0079 17.9326 10.0758 17.8631 10.1458 17.7916C10.2157 17.7192 10.2856 17.6467 10.3577 17.5721C10.4967 17.4281 10.6362 17.2845 10.7761 17.1414C10.8376 17.0777 10.899 17.014 10.9623 16.9484C11.3267 16.6248 11.661 16.6928 12.1094 16.7969Z" fill="white"/>
<path d="M12.2068 29.4922C12.4107 29.7981 12.4615 29.9902 12.451 30.3561C12.3908 30.615 12.2947 30.7284 12.1149 30.9231C12.0528 30.9907 11.9907 31.0583 11.9268 31.128C11.858 31.2005 11.7893 31.273 11.7185 31.3477C11.6462 31.4248 11.5739 31.5019 11.4994 31.5813C11.2657 31.8274 11.0287 32.07 10.7908 32.312C10.7111 32.3954 10.6314 32.4787 10.5493 32.5645C9.77027 33.3548 9.77027 33.3548 9.17944 33.3984C8.69509 33.2366 8.37297 32.9246 8.02588 32.5623C7.97811 32.514 7.93033 32.4657 7.88111 32.416C7.42934 31.9542 7.42934 31.9542 7.40332 31.5552C7.4214 31.2538 7.44327 31.1025 7.61694 30.8594C7.87404 30.6594 8.01332 30.6643 8.34326 30.6763C8.71697 30.7681 8.90184 30.8916 9.17944 31.1523C9.4837 31.0179 9.68284 30.8648 9.91148 30.6244C10.0054 30.5275 10.0054 30.5275 10.1013 30.4287C10.2312 30.2928 10.3609 30.1568 10.4904 30.0205C11.0573 29.4371 11.3887 29.168 12.2068 29.4922Z" fill="white"/>
<path d="M11.6595 22.9871C12.012 23.047 12.012 23.047 12.2561 23.1873C12.4733 23.5584 12.4766 23.896 12.4026 24.3165C12.2528 24.5807 12.0544 24.7703 11.8327 24.9757C11.7746 25.0327 11.7165 25.0898 11.6567 25.1485C11.4719 25.3291 11.2843 25.5063 11.0964 25.6837C10.9709 25.8057 10.8455 25.9279 10.7203 26.0503C9.71975 27.0224 9.71975 27.0224 9.31421 27.0997C8.81112 27.0252 8.55554 26.7167 8.20337 26.3673C8.13791 26.3043 8.07245 26.2414 8.005 26.1765C7.43703 25.6225 7.43703 25.6225 7.3916 25.2137C7.43087 24.8131 7.50217 24.6717 7.81274 24.4141C8.11955 24.3432 8.38484 24.3432 8.69165 24.4141C8.99072 24.6583 8.99072 24.6583 9.17993 24.9024C9.5079 24.7617 9.70481 24.5874 9.9444 24.3249C10.0145 24.2506 10.0846 24.1763 10.1569 24.0998C10.3028 23.9435 10.4475 23.7861 10.591 23.6275C11.1937 22.9958 11.1937 22.9958 11.6595 22.9871Z" fill="white"/>
<path d="M11.9136 35.6446C12.1943 35.7849 12.1943 35.7849 12.4019 36.0352C12.4781 36.4013 12.488 36.7625 12.3 37.0934C12.1531 37.2659 11.9982 37.4193 11.8319 37.5733C11.7739 37.6303 11.7158 37.6874 11.656 37.7462C11.4712 37.9267 11.2836 38.1039 11.0957 38.2813C10.9701 38.4033 10.8448 38.5255 10.7196 38.6479C9.71263 39.6263 9.71263 39.6263 9.26083 39.6965C8.72856 39.6282 8.5184 39.361 8.16602 38.9771C8.10471 38.9135 8.0434 38.8499 7.98024 38.7844C7.43891 38.2174 7.43891 38.2174 7.38477 37.8113C7.42139 37.5 7.42139 37.5 7.6228 37.2193C7.90967 37.0118 7.90967 37.0118 8.24536 36.9507C8.6964 37.0298 8.85536 37.1841 9.1792 37.5C9.4957 37.3614 9.70248 37.1941 9.9429 36.9473C10.0113 36.8779 10.0796 36.8084 10.15 36.7369C10.2204 36.6645 10.2908 36.592 10.3633 36.5174C10.5037 36.3736 10.6443 36.23 10.7852 36.0867C10.8471 36.023 10.9091 35.9593 10.9729 35.8936C11.2723 35.6092 11.5094 35.6049 11.9136 35.6446Z" fill="white"/>
</g>
<defs>
<clipPath id="clip0_196_185">
<rect width="50" height="50" fill="white"/>
</clipPath>
</defs>
</svg>
