<svg width="50" height="50" viewBox="0 0 50 50" fill="none" xmlns="http://www.w3.org/2000/svg">
<g clip-path="url(#clip0_196_167)">
<path d="M24.9331 11.2916C25.0185 11.2916 25.104 11.2917 25.192 11.2917C32.7116 11.3131 39.0737 15.4225 44.2306 20.5794C44.6813 21.0358 45.1017 21.4991 45.4973 22.0044C45.6959 22.2563 45.9017 22.4994 46.1112 22.7421C46.3364 23.004 46.5572 23.2693 46.7775 23.5352C46.8502 23.6221 46.9228 23.7089 46.9977 23.7984C47.06 23.8787 47.1223 23.9591 47.1865 24.0418C47.2671 24.1436 47.2671 24.1436 47.3494 24.2474C47.5248 24.6624 47.5346 25.0455 47.4611 25.4883C47.3303 25.7771 47.1518 26.0035 46.9484 26.2452C46.8956 26.3116 46.8427 26.3779 46.7882 26.4463C46.6245 26.6501 46.4574 26.8507 46.2893 27.0508C46.2142 27.1416 46.2142 27.1416 46.1376 27.2343C45.8053 27.6358 45.4644 28.0291 45.1174 28.418C45.0711 28.4699 45.0249 28.5219 44.9772 28.5753C43.9181 29.7568 42.821 30.9407 41.5709 31.9214C41.3302 32.112 41.0983 32.3102 40.8671 32.512C39.1092 34.0374 37.0786 35.3492 34.9692 36.331C34.827 36.3973 34.6852 36.4646 34.5438 36.5325C31.5638 37.9636 28.3731 38.7167 25.0673 38.7086C24.9818 38.7085 24.8962 38.7084 24.8081 38.7083C21.247 38.6966 17.7859 37.804 14.637 36.1324C14.4519 36.0345 14.2659 35.9388 14.0795 35.8433C12.3623 34.9565 10.7638 33.8509 9.27755 32.6172C9.22938 32.5774 9.18121 32.5375 9.13159 32.4964C7.48695 31.1315 5.8244 29.6833 4.50307 27.9957C4.3045 27.7438 4.09867 27.5008 3.88917 27.258C3.664 26.9962 3.44316 26.7308 3.22286 26.4649C3.15022 26.378 3.07759 26.2912 3.00275 26.2017C2.90928 26.0812 2.90928 26.0812 2.81392 25.9583C2.76017 25.8905 2.70642 25.8226 2.65104 25.7527C2.47557 25.3377 2.46584 24.9546 2.53926 24.5118C2.67009 24.223 2.84858 23.9966 3.05196 23.7549C3.13116 23.6555 3.13116 23.6555 3.21196 23.554C3.37574 23.3501 3.54285 23.1495 3.71114 22.9493C3.78698 22.8577 3.78698 22.8577 3.86435 22.7643C4.19665 22.3637 4.53728 21.9711 4.88301 21.5821C4.96685 21.4873 5.05069 21.3925 5.13707 21.2948C6.16183 20.1571 7.22554 19.0201 8.43335 18.0749C8.67104 17.8874 8.89993 17.6922 9.12808 17.4933C11.0205 15.8529 13.1633 14.5347 15.4299 13.4766C15.4893 13.4483 15.5488 13.4199 15.61 13.3907C18.5366 12.0023 21.6997 11.284 24.9331 11.2916ZM16.9924 15.0391C16.9179 15.0718 16.8433 15.1045 16.7665 15.1381C14.7416 16.0356 12.8636 17.1729 11.133 18.5547C11.0341 18.633 10.9351 18.7113 10.8332 18.792C10.3144 19.2096 9.81426 19.6453 9.32218 20.094C9.16429 20.2378 9.00536 20.3805 8.84534 20.522C7.92258 21.3388 7.04369 22.2008 6.2502 23.1446C6.16035 23.25 6.07045 23.3555 5.9805 23.4608C5.88319 23.5751 5.78592 23.6894 5.68868 23.8038C5.64253 23.858 5.59639 23.9123 5.54885 23.9682C5.4237 24.1161 5.2998 24.2651 5.17598 24.4141C5.11506 24.4811 5.05413 24.5481 4.99135 24.6171C4.86216 24.803 4.86216 24.803 4.88988 25.0424C5.00048 25.3477 5.14904 25.5396 5.35909 25.7874C5.47767 25.9275 5.47767 25.9275 5.59865 26.0705C5.9531 26.4768 6.31778 26.8736 6.6847 27.2687C6.88453 27.4856 7.07839 27.7052 7.26949 27.9297C7.97226 28.7389 8.75208 29.4851 9.57051 30.1758C9.70326 30.2923 9.70326 30.2923 9.83869 30.4112C14.2836 34.2887 20.0827 37.0365 26.0858 36.6923C30.772 36.3403 35.2164 34.3606 38.8674 31.4454C38.9663 31.3671 39.0653 31.2888 39.1672 31.2081C39.6859 30.7906 40.1859 30.355 40.6778 29.9065C40.8371 29.7615 40.9973 29.6175 41.1585 29.4747C42.0468 28.6873 42.8847 27.8589 43.6525 26.9532C43.7497 26.8403 43.847 26.7275 43.9444 26.6148C44.0506 26.4916 44.1567 26.3684 44.2629 26.2452C44.3137 26.1863 44.3645 26.1274 44.4168 26.0667C44.5121 25.9556 44.6069 25.844 44.701 25.7319C44.8021 25.6124 44.9067 25.4957 45.0121 25.38C45.138 25.1964 45.138 25.1964 45.1105 24.9577C44.9999 24.6524 44.8514 24.4605 44.6413 24.2127C44.5623 24.1193 44.4832 24.0259 44.4018 23.9297C44.0473 23.5233 43.6826 23.1265 43.3157 22.7315C43.1159 22.5145 42.922 22.2949 42.7309 22.0704C42.0282 21.2612 41.2484 20.5148 40.4299 19.8243C40.3425 19.7477 40.2552 19.6712 40.1651 19.5923C38.6744 18.2937 37.0737 17.1806 35.3518 16.211C35.27 16.1645 35.1882 16.1181 35.1039 16.0702C29.4791 12.9053 22.9256 12.4135 16.9924 15.0391Z" fill="white"/>
<path d="M24.9637 16.1621C25.1423 16.1631 25.1423 16.1631 25.3245 16.1641C27.3754 16.2051 29.2232 16.8957 30.7621 18.2618C30.8602 18.3392 30.8602 18.3392 30.9604 18.4182C32.506 19.6632 33.5268 21.6827 33.7894 23.6329C33.9971 26.0408 33.6478 28.381 32.1231 30.3223C31.9959 30.4696 31.8678 30.6162 31.7386 30.7618C31.687 30.8272 31.6354 30.8927 31.5822 30.9601C30.3372 32.5057 28.3176 33.5265 26.3675 33.7891C23.9595 33.9968 21.6194 33.6475 19.6781 32.1228C19.5307 31.9956 19.3842 31.8675 19.2386 31.7383C19.1732 31.6867 19.1077 31.6351 19.0403 31.5819C17.5027 30.3433 16.4597 28.313 16.2113 26.3672C16.0416 23.8531 16.0416 23.8531 16.4066 22.9493C16.717 22.6678 16.9209 22.5701 17.3343 22.5037C17.6805 22.5593 17.8933 22.6415 18.1504 22.8846C18.48 23.3636 18.3636 24.137 18.3483 24.6926C18.3037 26.4462 18.6767 27.9714 19.8612 29.3274C20.01 29.4817 20.1605 29.6344 20.3128 29.7852C20.3777 29.8533 20.4425 29.9214 20.5093 29.9916C21.7012 31.1607 23.4507 31.7383 25.098 31.7383C26.9849 31.6097 28.6603 30.9374 29.9926 29.5731C31.3384 28.0096 31.7597 26.202 31.6612 24.1816C31.5378 22.6202 30.7844 21.3003 29.6878 20.2149C29.623 20.1468 29.5582 20.0787 29.4914 20.0085C28.5838 19.1182 27.3187 18.5659 26.0746 18.3594C25.9901 18.3446 25.9056 18.3297 25.8186 18.3144C24.8309 18.1823 23.7953 18.3385 22.8458 18.6219C22.4204 18.7456 22.1122 18.7993 21.68 18.6524C21.3403 18.3488 21.2066 18.172 21.1429 17.7185C21.1973 17.3446 21.233 17.1768 21.4847 16.8946C22.5031 16.2589 23.7951 16.1556 24.9637 16.1621Z" fill="white"/>
<path d="M27.1889 21.6316C28.0486 22.2508 28.6947 23.0698 28.9059 24.1211C29.0366 25.3337 28.9328 26.4052 28.204 27.417C27.5387 28.2066 26.7277 28.8147 25.6764 28.928C24.4155 29.0155 23.3639 28.8626 22.3694 28.0247C21.5376 27.2306 21.0932 26.3859 21.0475 25.2309C21.0323 24.0088 21.3074 23.0691 22.1676 22.168C23.5134 20.8833 25.5959 20.6382 27.1889 21.6316ZM23.3395 23.9807C23.055 24.4927 23.0508 25.0173 23.1442 25.5859C23.3352 26.1177 23.6904 26.499 24.1822 26.7723C24.7167 26.9643 25.2826 26.9643 25.8172 26.7723C26.309 26.499 26.6642 26.1177 26.8551 25.5859C26.9485 25.0173 26.9444 24.4927 26.6598 23.9807C26.298 23.4979 25.9047 23.1969 25.3022 23.098C24.4382 23.0566 23.8612 23.2847 23.3395 23.9807Z" fill="white"/>
<path d="M39.7459 37.4022C40.3351 37.7375 40.7827 38.2156 41.2581 38.6931C41.3456 38.7805 41.4332 38.8679 41.5234 38.958C41.7079 39.1422 41.8921 39.3267 42.076 39.5115C42.3113 39.748 42.5475 39.9835 42.7839 40.2188C43.0102 40.4442 43.2358 40.6704 43.4614 40.8965C43.5462 40.9808 43.6309 41.0652 43.7182 41.1521C43.7964 41.2309 43.8747 41.3098 43.9553 41.3911C44.0243 41.4602 44.0932 41.5292 44.1642 41.6004C44.4908 41.9742 44.5744 42.2735 44.5631 42.7764C44.5125 43.0803 44.3567 43.247 44.1404 43.4569C43.8312 43.6115 43.4984 43.6174 43.1639 43.5546C42.5747 43.2193 42.1271 42.7413 41.6517 42.2637C41.5204 42.1326 41.5204 42.1326 41.3863 41.9989C41.2019 41.8146 41.0177 41.6301 40.8338 41.4453C40.5985 41.2089 40.3623 40.9733 40.1258 40.738C39.8995 40.5126 39.674 40.2864 39.4484 40.0603C39.3636 39.976 39.2789 39.8916 39.1916 39.8047C39.1133 39.7259 39.0351 39.647 38.9545 39.5657C38.8855 39.4967 38.8166 39.4276 38.7456 39.3564C38.419 38.9826 38.3354 38.6833 38.3467 38.1804C38.3973 37.8765 38.5531 37.7098 38.7693 37.4999C39.0786 37.3453 39.4114 37.3394 39.7459 37.4022Z" fill="white"/>
<path d="M11.0355 37.4023C11.31 37.5775 11.4759 37.6971 11.6215 37.9883C11.6715 38.5887 11.6055 38.8774 11.2309 39.3554C10.9404 39.6739 10.636 39.9776 10.3306 40.2816C10.1995 40.413 10.1995 40.413 10.0658 40.547C9.88147 40.7315 9.697 40.9157 9.51219 41.0996C9.27576 41.3349 9.04022 41.5711 8.80493 41.8075C8.5795 42.0338 8.35332 42.2594 8.12722 42.485C8.04288 42.5698 7.95854 42.6545 7.87164 42.7418C7.79277 42.82 7.7139 42.8983 7.63264 42.9789C7.56356 43.0479 7.49447 43.1168 7.4233 43.1878C7.0495 43.5144 6.75019 43.598 6.24733 43.5867C5.94344 43.5361 5.77669 43.3803 5.56679 43.164C5.41218 42.8548 5.40627 42.522 5.46914 42.1875C5.80441 41.5983 6.28245 41.1507 6.76003 40.6753C6.84742 40.5877 6.93481 40.5002 7.02485 40.4099C7.20914 40.2255 7.39361 40.0413 7.57842 39.8574C7.81486 39.6221 8.0504 39.3859 8.28569 39.1494C8.51112 38.9231 8.73729 38.6976 8.9634 38.472C9.04774 38.3872 9.13208 38.3025 9.21897 38.2152C9.29784 38.1369 9.37671 38.0587 9.45797 37.978C9.5616 37.8747 9.5616 37.8747 9.66732 37.7692C10.0816 37.4072 10.4891 37.3112 11.0355 37.4023Z" fill="white"/>
<path d="M43.9457 7.42185C44.2201 7.59701 44.3861 7.71665 44.5316 8.00778C44.5817 8.60826 44.5157 8.8969 44.141 9.37497C43.8506 9.69343 43.5462 9.99717 43.2407 10.3012C43.1097 10.4325 43.1097 10.4325 42.9759 10.5666C42.7916 10.751 42.6072 10.9352 42.4223 11.1191C42.1859 11.3544 41.9504 11.5906 41.7151 11.8271C41.4897 12.0534 41.2635 12.2789 41.0374 12.5045C40.953 12.5893 40.8687 12.674 40.7818 12.7613C40.7029 12.8396 40.6241 12.9178 40.5428 12.9985C40.4737 13.0674 40.4046 13.1363 40.3335 13.2073C39.9597 13.5339 39.6603 13.6175 39.1575 13.6062C38.8536 13.5556 38.6868 13.3998 38.4769 13.1836C38.3223 12.8743 38.3164 12.5415 38.3793 12.207C38.7146 11.6178 39.1926 11.1702 39.6702 10.6949C39.7576 10.6073 39.845 10.5197 39.935 10.4295C40.1193 10.245 40.3038 10.0608 40.4886 9.87694C40.725 9.64162 40.9606 9.40543 41.1958 9.16897C41.4213 8.94267 41.6474 8.71711 41.8736 8.49149C41.9579 8.40675 42.0422 8.32202 42.1291 8.23472C42.208 8.15646 42.2869 8.07821 42.3681 7.99758C42.4718 7.89419 42.4718 7.89419 42.5775 7.78871C42.9917 7.42678 43.3992 7.33077 43.9457 7.42185Z" fill="white"/>
<path d="M6.83575 7.42177C7.42492 7.75704 7.87256 8.23508 8.3479 8.71267C8.43548 8.80006 8.52305 8.88745 8.61329 8.97749C8.79771 9.16178 8.98192 9.34625 9.16582 9.53106C9.40113 9.76749 9.63732 10.003 9.87378 10.2383C10.1001 10.4638 10.3256 10.6899 10.5513 10.916C10.636 11.0004 10.7207 11.0847 10.808 11.1716C10.8863 11.2505 10.9645 11.3293 11.0452 11.4106C11.1141 11.4797 11.183 11.5488 11.254 11.62C11.5806 11.9937 11.6642 12.2931 11.653 12.7959C11.6023 13.0998 11.4465 13.2666 11.2303 13.4765C10.9211 13.6311 10.5882 13.637 10.2537 13.5741C9.66455 13.2388 9.21692 12.7608 8.74157 12.2832C8.61021 12.1521 8.61021 12.1521 8.47618 12.0184C8.29176 11.8341 8.10755 11.6496 7.92366 11.4648C7.68834 11.2284 7.45215 10.9929 7.21569 10.7576C6.98939 10.5321 6.76383 10.306 6.5382 10.0799C6.45347 9.99551 6.36874 9.91118 6.28143 9.82428C6.20318 9.74541 6.12492 9.66654 6.0443 9.58528C5.97537 9.51619 5.90644 9.44711 5.83542 9.37593C5.50884 9.00214 5.42526 8.70283 5.43652 8.19997C5.48717 7.89607 5.64293 7.72932 5.85919 7.51943C6.16842 7.36481 6.50124 7.35891 6.83575 7.42177Z" fill="white"/>
<path d="M24.9996 41.5404C25.0801 41.5392 25.1607 41.5379 25.2437 41.5366C25.6019 41.6318 25.7436 41.8045 25.9761 42.0898C26.0246 42.3534 26.0432 42.5558 26.0393 42.8187C26.0406 42.9263 26.0406 42.9263 26.0419 43.0359C26.044 43.272 26.0426 43.5078 26.041 43.7438C26.0413 43.9083 26.0418 44.0729 26.0424 44.2374C26.0431 44.5819 26.0421 44.9263 26.0398 45.2707C26.037 45.7118 26.0386 46.1527 26.0415 46.5937C26.0433 46.9334 26.0427 47.273 26.0415 47.6126C26.0411 47.7752 26.0415 47.9378 26.0427 48.1004C26.0439 48.3279 26.042 48.5552 26.0393 48.7826C26.0403 48.8495 26.0413 48.9164 26.0423 48.9853C26.0341 49.3569 25.9814 49.5052 25.7433 49.7973C25.4654 50.0177 25.3487 50.0664 24.9996 50.0609C24.8787 50.0628 24.8787 50.0628 24.7554 50.0648C24.3972 49.9696 24.2555 49.7969 24.023 49.5116C23.9745 49.2479 23.9559 49.0455 23.9598 48.7826C23.959 48.711 23.9581 48.6393 23.9572 48.5654C23.9551 48.3294 23.9565 48.0936 23.9581 47.8576C23.9578 47.693 23.9573 47.5285 23.9567 47.364C23.956 47.0195 23.9571 46.6751 23.9593 46.3306C23.9621 45.8896 23.9605 45.4487 23.9576 45.0076C23.9558 44.668 23.9564 44.3284 23.9577 43.9887C23.958 43.8261 23.9576 43.6635 23.9564 43.501C23.9552 43.2735 23.9571 43.0462 23.9598 42.8187C23.9583 42.7184 23.9583 42.7184 23.9568 42.6161C23.965 42.2444 24.0178 42.0962 24.2558 41.8041C24.5337 41.5837 24.6504 41.535 24.9996 41.5404Z" fill="white"/>
<path d="M24.9996 -0.0611267C25.0801 -0.0623856 25.1607 -0.0636444 25.2437 -0.0649414C25.6019 0.0302078 25.7436 0.202909 25.9761 0.48819C26.0246 0.751868 26.0432 0.95427 26.0393 1.21718C26.0406 1.32469 26.0406 1.32469 26.0419 1.43438C26.044 1.67039 26.0426 1.90623 26.041 2.14224C26.0413 2.30678 26.0418 2.47131 26.0424 2.63584C26.0431 2.98031 26.0421 3.32471 26.0398 3.66917C26.037 4.11022 26.0386 4.55113 26.0415 4.99218C26.0433 5.33183 26.0427 5.67144 26.0415 6.01109C26.0411 6.17368 26.0415 6.33627 26.0427 6.49886C26.0439 6.72635 26.042 6.95361 26.0393 7.18108C26.0403 7.24795 26.0413 7.31483 26.0423 7.38373C26.0341 7.75538 25.9814 7.90364 25.7433 8.19571C25.4654 8.41615 25.3487 8.46484 24.9996 8.45938C24.8787 8.46127 24.8787 8.46127 24.7554 8.4632C24.3972 8.36805 24.2555 8.19534 24.023 7.91006C23.9745 7.64639 23.9559 7.44398 23.9598 7.18108C23.959 7.1094 23.9581 7.03772 23.9572 6.96387C23.9551 6.72786 23.9565 6.49203 23.9581 6.25601C23.9578 6.09148 23.9573 5.92695 23.9567 5.76241C23.956 5.41795 23.9571 5.07354 23.9593 4.72908C23.9621 4.28803 23.9605 3.84712 23.9576 3.40607C23.9558 3.06643 23.9564 2.72681 23.9577 2.38717C23.958 2.22458 23.9576 2.06198 23.9564 1.89939C23.9552 1.6719 23.9571 1.44465 23.9598 1.21718C23.9583 1.11686 23.9583 1.11686 23.9568 1.01452C23.965 0.642875 24.0178 0.494613 24.2558 0.20254C24.5337 -0.0178934 24.6504 -0.066582 24.9996 -0.0611267Z" fill="white"/>
<path d="M19.6293 19.1405C19.9345 19.3236 19.9345 19.3236 20.1176 19.6288C20.2141 20.1196 20.1934 20.4789 19.9345 20.9105C19.5028 21.1695 19.1436 21.1902 18.6527 21.0936C18.3475 20.9105 18.3475 20.9105 18.1644 20.6054C18.0679 20.1145 18.0886 19.7552 18.3475 19.3236C18.7792 19.0646 19.1384 19.044 19.6293 19.1405Z" fill="white"/>
</g>
<defs>
<clipPath id="clip0_196_167">
<rect width="50" height="50" fill="white"/>
</clipPath>
</defs>
</svg>
